<?xml version="1.0" encoding="utf-8"?>
<svg fill="none" stroke="none" stroke-linecap="square" stroke-miterlimit="10" version="1.1" viewBox="0.0 0.0 1250.0 1250.0" xmlns="http://www.w3.org/2000/svg" xmlns:xlink="http://www.w3.org/1999/xlink"><clipPath id="g366d6b904a8_0_5.0"><path clip-rule="nonzero" d="m0 0l1250.0 0l0 1250.0l-1250.0 0l0 -1250.0z"/></clipPath><g clip-path="url(#g366d6b904a8_0_5.0)"><path d="m0 0l1250.0 0l0 1250.0l-1250.0 0z" fill="#000000" fill-rule="evenodd"/><path d="m0 0l1249.9843 0l0 1250.0157l-1249.9843 0z" fill="#000000" fill-opacity="0.0" fill-rule="evenodd"/><path d="m279.93225 439.41412q13.328125 0.53125 34.125 1.0625q20.796875 0.53125 41.609375 0.53125q26.125 0 49.59375 -0.53125q23.46875 -0.53125 33.0625 -0.53125q71.46875 0 106.40625 29.34375q34.9375 29.328125 34.9375 75.71875q0 19.203125 -6.9375 40.265625q-6.9375 21.0625 -24.0 38.9375q-17.0625 17.859375 -46.671875 29.0625q-29.59375 11.203125 -75.46875 11.203125l-53.328125 0l0 -10.671875l48.0 0q33.59375 0 51.453125 -14.390625q17.875 -14.40625 24.0 -37.875q6.140625 -23.46875 6.140625 -50.65625q0 -50.671875 -16.53125 -75.734375q-16.53125 -25.078125 -57.0625 -25.078125q-21.859375 0 -28.53125 9.078125q-6.671875 9.0625 -6.671875 36.796875l0 262.39062q0 20.265625 4.265625 30.40625q4.265625 10.125 16.53125 13.328125q12.265625 3.203125 35.203125 3.734375l0 11.203125q-15.46875 -1.0625 -40.0 -1.328125q-24.53125 -0.265625 -50.65625 -0.265625q-22.40625 0 -43.203125 0.265625q-20.796875 0.265625 -36.265625 1.328125l0 -10.671875q17.59375 -1.0625 26.390625 -4.265625q8.8125 -3.203125 11.734375 -12.796875q2.9375 -9.59375 2.9375 -28.796875l0 -264.53125q0 -19.734375 -2.9375 -29.0625q-2.921875 -9.34375 -11.734375 -12.796875q-8.796875 -3.46875 -26.390625 -4.015625l0 -10.65625z" fill="#ffffff" fill-rule="nonzero"/><path d="m556.19354 903.4141q10.671875 -10.671875 24.8125 -34.9375q14.125 -24.265625 30.390625 -57.859375q16.265625 -33.609375 33.328125 -72.8125q17.0625 -39.203125 33.859375 -79.734375q16.8125 -40.53125 32.0 -78.65625q15.203125 -38.140625 27.734375 -69.875q12.53125 -31.734375 20.53125 -52.53125q2.140625 -5.328125 9.609375 -10.65625q7.46875 -5.34375 17.0625 -9.34375q9.609375 -4.0 18.140625 -4.0q-2.671875 6.40625 -10.671875 26.140625q-8.0 19.734375 -19.734375 48.0q-11.734375 28.265625 -25.609375 61.875q-13.859375 33.59375 -28.265625 68.53125q-14.390625 34.921875 -28.0 67.1875q-13.59375 32.265625 -24.53125 58.40625q-10.921875 26.125 -17.328125 42.125q-19.734375 47.46875 -45.0625 72.796875q-25.328125 25.34375 -48.265625 25.34375zm226.12433 -61.34375q-16.53125 0 -27.984375 -10.9375q-11.46875 -10.921875 -11.46875 -33.328125q0 -19.203125 8.53125 -41.328125q8.53125 -22.140625 23.453125 -43.734375q14.9375 -21.59375 33.875 -39.453125q18.9375 -17.875 40.0 -28.546875q21.0625 -10.671875 41.859375 -10.671875q20.8125 0 34.671875 10.9375q13.859375 10.9375 13.859375 29.0625q0 13.34375 -7.203125 18.140625q-7.1875 4.796875 -18.921875 4.796875q1.0625 -4.265625 1.859375 -9.328125q0.8125 -5.078125 0.8125 -9.34375q0 -12.265625 -5.875 -21.0625q-5.859375 -8.796875 -20.265625 -8.796875q-14.9375 0 -30.40625 10.40625q-15.453125 10.390625 -29.859375 27.734375q-14.40625 17.328125 -25.609375 37.59375q-11.1875 20.265625 -17.59375 40.0q-6.390625 19.734375 -6.390625 35.203125q0 20.796875 14.390625 20.796875q12.265625 0 26.671875 -11.46875q14.40625 -11.46875 29.59375 -29.328125q15.203125 -17.875 29.0625 -37.0625q13.875 -19.203125 24.546875 -35.203125q2.125 -3.203125 2.65625 -3.203125q3.203125 0.53125 8.265625 2.140625q5.078125 1.59375 8.8125 4.265625q3.734375 2.65625 3.734375 6.921875q0 4.796875 -4.8125 13.0625q-4.796875 8.265625 -10.671875 18.9375q-5.859375 10.671875 -10.65625 21.609375q-4.796875 10.921875 -4.796875 20.53125q0 8.0 4.265625 15.734375q4.265625 7.71875 13.859375 7.71875q14.40625 0 37.875 -21.0625q23.46875 -21.0625 47.46875 -63.203125l5.328125 5.34375q-11.203125 28.796875 -28.8125 50.671875q-17.59375 21.859375 -37.59375 34.125q-20.0 12.265625 -39.1875 12.265625q-19.734375 0 -29.078125 -11.734375q-9.328125 -11.734375 -9.328125 -25.59375q0 -3.203125 0.53125 -7.203125q0.53125 -4.0 1.0625 -8.265625q-22.921875 30.9375 -41.859375 46.390625q-18.9375 15.46875 -38.671875 15.46875z" fill="#ffffff" fill-rule="nonzero"/></g></svg>