<svg version="1.1" viewBox="0.0 0.0 1200.0 630.0" fill="none" stroke="none" stroke-linecap="square" stroke-miterlimit="10" xmlns:xlink="http://www.w3.org/1999/xlink" xmlns="http://www.w3.org/2000/svg"><clipPath id="g366d6b904a8_0_5.0"><path d="m0 0l1200.0 0l0 630.0l-1200.0 0l0 -630.0z" clip-rule="nonzero"/></clipPath><g clip-path="url(#g366d6b904a8_0_5.0)"><path fill="#000000" d="m0 0l1200.0 0l0 630.0l-1200.0 0z" fill-rule="evenodd"/><path fill="#000000" fill-opacity="0.0" d="m0 0l1200.0 0l0 630.01575l-1200.0 0z" fill-rule="evenodd"/><path fill="#ffffff" d="m266.59366 404.41412q-11.1875 0 -20.59375 -5.90625q-9.40625 -5.90625 -15.0 -17.203125q-5.59375 -11.296875 -5.59375 -27.09375q0 -15.40625 4.796875 -31.203125q4.796875 -15.796875 13.1875 -30.09375q8.40625 -14.3125 19.203125 -25.5q10.8125 -11.203125 22.90625 -17.703125q12.09375 -6.5 24.296875 -6.5q8.796875 0 14.0 3.296875q5.203125 3.296875 7.5 8.703125q2.296875 5.390625 2.296875 11.59375q0 7.0 -2.5 14.0q-2.5 7.0 -6.796875 11.609375q-4.296875 4.59375 -9.5 4.59375q-2.390625 0 -4.390625 -1.390625q-2.0 -1.40625 -4.0 -5.203125q3.0 -2.0 6.6875 -7.0q3.703125 -5.0 6.5 -11.09375q2.8125 -6.109375 2.8125 -10.90625q0 -4.0 -2.5 -6.703125q-2.5 -2.703125 -8.3125 -2.703125q-9.0 0 -18.5 6.703125q-9.5 6.703125 -18.09375 17.796875q-8.59375 11.09375 -15.5 24.796875q-6.90625 13.703125 -10.90625 28.0q-4.0 14.296875 -4.0 27.109375q0 18.1875 7.90625 28.296875q7.90625 10.09375 18.90625 10.09375q8.1875 0 15.09375 -5.203125q6.90625 -5.1875 12.203125 -13.6875q5.296875 -8.5 8.5 -18.5q3.203125 -10.0 4.0 -19.609375q-5.0 -1.0 -10.3125 -1.5q-5.296875 -0.5 -11.09375 -0.5q-3.203125 0 -6.40625 0.109375q-3.1875 0.09375 -6.796875 0.296875q1.8125 -7.0 5.703125 -10.296875q3.90625 -3.3125 10.296875 -3.3125q6.0 0 12.09375 1.90625q6.109375 1.90625 12.40625 4.109375q6.3125 2.1875 12.3125 3.59375l-2.0 6.203125q-3.609375 11.0 -5.90625 18.296875q-2.296875 7.296875 -3.5 12.40625q-1.203125 5.09375 -1.609375 9.203125q-0.390625 4.09375 -0.390625 8.484375q0 4.0 0.203125 8.296875q0.203125 4.3125 0.390625 10.5q-6.0 -0.796875 -8.90625 -3.5q-2.890625 -2.6875 -3.796875 -6.296875q-0.890625 -3.59375 -0.890625 -7.0q0 -1.0 0 -2.0q0 -1.0 0.203125 -2.0q-7.0 8.609375 -16.109375 14.109375q-9.09375 5.5 -20.5 5.5zm92.609406 -8.609375q-12.796875 0 -19.703125 -6.90625q-6.90625 -6.890625 -6.90625 -17.296875q0 -8.796875 4.5 -18.6875q4.5 -9.90625 12.09375 -18.609375q7.609375 -8.703125 16.8125 -14.09375q9.203125 -5.40625 18.40625 -5.40625q5.1875 0 9.890625 2.703125q4.703125 2.703125 4.703125 10.703125q0 7.59375 -4.40625 14.203125q-4.390625 6.59375 -11.796875 11.796875q-7.390625 5.203125 -16.296875 8.5q-8.90625 3.296875 -17.90625 4.296875q-0.1875 0.796875 -0.296875 1.703125q-0.09375 0.890625 -0.09375 2.890625q0 1.0 0.296875 3.5q0.296875 2.5 1.6875 5.3125q1.40625 2.796875 4.609375 4.796875q3.203125 2.0 8.796875 2.0q8.40625 0 16.90625 -4.703125q8.5 -4.703125 16.0 -12.5q7.5 -7.796875 12.5 -17.40625l4.0 3.203125q-5.40625 12.0 -13.90625 21.0q-8.5 9.0 -18.796875 14.0q-10.296875 5.0 -21.09375 5.0zm-8.40625 -36.203125q5.203125 -0.59375 11.59375 -3.59375q6.40625 -3.0 12.296875 -7.59375q5.90625 -4.609375 9.703125 -10.109375q3.8125 -5.5 3.8125 -11.09375q0 -2.203125 -0.8125 -3.0q-0.796875 -0.796875 -2.59375 -0.796875q-4.59375 0 -9.59375 3.296875q-5.0 3.296875 -9.8125 8.59375q-4.796875 5.296875 -8.59375 11.703125q-3.796875 6.40625 -6.0 12.59375zm71.60626 36.609375q-8.796875 0 -14.203125 -5.203125q-5.40625 -5.203125 -5.40625 -15.796875q0 -8.203125 3.09375 -20.40625q3.109375 -12.203125 7.90625 -25.203125q-1.390625 -0.390625 -3.296875 -0.6875q-1.890625 -0.3125 -3.703125 -1.109375l0 -6.203125q3.203125 0.40625 5.296875 0.609375q2.109375 0.203125 4.3125 0.390625q4.203125 -10.59375 9.09375 -20.484375q4.90625 -9.90625 9.796875 -17.703125q4.90625 -7.8125 9.296875 -12.3125q4.40625 -4.5 7.8125 -4.5q2.0 0 3.796875 1.5q1.796875 1.5 1.796875 4.3125q0 4.0 -4.109375 11.40625q-4.09375 7.390625 -10.09375 17.296875q-6.0 9.890625 -11.59375 21.09375q1.59375 0 3.1875 0q1.609375 0 3.015625 0q8.796875 0 15.890625 -0.296875q7.109375 -0.3125 14.5 -1.109375l0 6.609375q-11.0 1.0 -20.203125 1.59375q-9.1875 0.59375 -17.59375 0.796875q-0.59375 0 -1.203125 0q-0.59375 0 -1.1875 0q-4.203125 9.796875 -7.3125 20.109375q-3.09375 10.296875 -3.09375 20.09375q0 8.203125 2.59375 11.609375q2.609375 3.390625 8.203125 3.390625q10.0 0 20.5 -9.09375q10.5 -9.109375 18.296875 -24.703125l2.8125 2.0q-5.203125 11.796875 -12.90625 21.40625q-7.703125 9.59375 -16.703125 15.09375q-9.0 5.5 -18.59375 5.5zm114.80316 8.203125q-6.0 0 -11.3125 -3.203125q-5.296875 -3.203125 -5.296875 -8.203125q0 -2.59375 0.890625 -5.59375q0.90625 -3.0 1.71875 -5.609375q6.1875 -19.0 11.59375 -35.5q5.40625 -16.5 10.90625 -31.796875q5.5 -15.296875 11.59375 -30.6875q6.09375 -15.40625 13.703125 -32.21875q-7.609375 1.609375 -13.015625 4.109375q-5.390625 2.5 -8.796875 4.40625q-3.390625 1.890625 -4.984375 1.890625q-1.0 0 -2.90625 -1.390625q-1.90625 -1.40625 -3.3125 -3.203125q-1.390625 -1.8125 -1.390625 -3.203125q5.609375 -2.40625 13.109375 -5.0q7.5 -2.609375 16.296875 -4.40625q8.796875 -1.796875 17.59375 -1.796875q9.40625 0 19.203125 2.5q9.796875 2.5 18.09375 7.40625q8.3125 4.890625 13.40625 12.203125q5.09375 7.296875 5.09375 17.09375q0 10.59375 -4.796875 18.203125q-4.796875 7.59375 -12.703125 12.796875q-7.890625 5.203125 -17.09375 8.40625q-9.203125 3.1875 -18.3125 4.796875q-9.09375 1.59375 -16.296875 2.203125q-7.1875 0.59375 -10.796875 0.59375l-1.1875 0q-5.609375 19.796875 -11.015625 39.5q-5.390625 19.703125 -9.984375 35.703125zm22.796875 -81.40625q11.203125 -0.796875 22.390625 -3.796875q11.203125 -3.0 20.296875 -8.296875q9.109375 -5.3125 14.609375 -13.3125q5.5 -8.0 5.5 -18.59375q0 -10.0 -5.296875 -16.203125q-5.296875 -6.203125 -13.609375 -9.390625q-8.296875 -3.203125 -17.5 -3.40625q-7.1875 14.0 -13.796875 33.109375q-6.59375 19.09375 -12.59375 39.890625zm65.60004 70.40625q-9.0 0 -12.3125 -5.90625q-3.296875 -5.90625 -3.296875 -12.90625q0 -6.390625 2.0 -13.09375q2.0 -6.703125 5.5 -12.5q3.5 -5.796875 7.796875 -9.296875q4.3125 -3.5 8.703125 -3.5q1.40625 0 3.296875 0.5q1.90625 0.5 2.703125 1.5q-2.390625 3.0 -4.890625 7.40625q-2.5 4.390625 -4.609375 9.296875q-2.09375 4.890625 -3.296875 9.890625q-1.203125 5.0 -1.203125 9.203125q0 4.0 1.5 6.609375q1.5 2.59375 5.3125 2.59375q3.796875 0 9.09375 -4.296875q5.296875 -4.3125 10.09375 -9.90625q-6.390625 -5.796875 -9.203125 -12.6875q-2.796875 -6.90625 -2.796875 -16.71875q0 -4.1875 2.09375 -9.59375q2.109375 -5.40625 6.8125 -9.40625q4.703125 -4.0 12.703125 -4.0q8.59375 0 12.09375 4.8125q3.5 4.796875 3.5 11.390625q0 7.40625 -3.90625 16.609375q-3.890625 9.1875 -9.296875 17.390625q2.40625 1.203125 5.609375 1.203125q3.0 0 7.1875 -1.390625q4.203125 -1.40625 8.203125 -4.703125q4.0 -3.3125 6.40625 -8.90625l3.59375 2.59375q-4.390625 10.203125 -11.703125 14.90625q-7.296875 4.703125 -14.296875 4.703125q-2.59375 0 -5.203125 -0.5q-2.59375 -0.5 -4.796875 -1.296875q-6.796875 8.0 -15.59375 14.0q-8.796875 6.0 -17.796875 6.0zm31.59375 -30.8125q4.796875 -7.0 8.203125 -15.0q3.40625 -8.0 3.40625 -14.796875q0 -4.59375 -1.40625 -6.6875q-1.40625 -2.109375 -4.203125 -2.109375q-3.796875 0 -7.796875 5.40625q-4.0 5.390625 -4.0 13.59375q0 4.203125 1.5 10.203125q1.5 6.0 4.296875 9.390625zm53.0094 34.609375q-10.0 0 -16.109375 -4.109375q-6.09375 -4.09375 -8.6875 -10.390625q-2.609375 -6.296875 -2.609375 -12.90625q0 -5.796875 1.609375 -9.0q1.59375 -3.203125 3.984375 -4.703125q2.40625 -1.5 4.5 -2.296875q2.109375 -0.796875 3.109375 -1.796875q5.0 -5.203125 10.296875 -12.09375q5.296875 -6.90625 9.09375 -15.3125l0 -2.0q0 -8.0 2.703125 -11.296875q2.703125 -3.296875 6.296875 -3.296875q2.40625 0 3.5 1.203125q1.109375 1.203125 1.3125 2.796875q0 1.203125 -0.5 2.8125q-0.5 1.59375 -0.5 4.390625q0 6.0 2.890625 13.703125q2.90625 7.6875 5.796875 16.296875q2.90625 8.59375 2.90625 17.59375q0 2.40625 -0.203125 4.40625q-0.203125 2.0 -0.59375 3.796875q6.203125 -1.59375 12.203125 -6.890625q6.0 -5.3125 11.390625 -15.703125l2.40625 1.796875q-3.796875 11.390625 -11.0 18.296875q-7.203125 6.90625 -16.796875 8.5q-3.203125 8.203125 -10.515625 12.203125q-7.296875 4.0 -16.484375 4.0zm-1.40625 -8.796875q4.0 0 7.390625 -2.0q3.40625 -2.0 5.40625 -5.8125q-8.203125 -1.796875 -14.796875 -6.390625q-6.59375 -4.609375 -10.203125 -9.40625q-2.796875 0.609375 -2.796875 5.40625q0 6.59375 3.796875 12.40625q3.796875 5.796875 11.203125 5.796875zm14.40625 -13.8125q0.390625 -1.390625 0.484375 -3.28125q0.109375 -1.90625 0.109375 -2.90625q-0.203125 -9.0 -2.40625 -17.796875q-2.1875 -8.8125 -4.390625 -18.015625q-3.609375 6.203125 -8.40625 13.40625q-4.796875 7.203125 -9.0 11.59375q3.203125 5.40625 9.40625 10.203125q6.203125 4.796875 14.203125 6.796875zm51.996826 21.609375q-8.796875 0 -14.203125 -5.203125q-5.40625 -5.203125 -5.40625 -15.796875q0 -8.203125 3.09375 -20.40625q3.109375 -12.203125 7.90625 -25.203125q-1.390625 -0.390625 -3.296875 -0.6875q-1.890625 -0.3125 -3.703125 -1.109375l0 -6.203125q3.203125 0.40625 5.296875 0.609375q2.109375 0.203125 4.3125 0.390625q4.203125 -10.59375 9.09375 -20.484375q4.90625 -9.90625 9.796875 -17.703125q4.90625 -7.8125 9.296875 -12.3125q4.40625 -4.5 7.8125 -4.5q2.0 0 3.796875 1.5q1.796875 1.5 1.796875 4.3125q0 4.0 -4.109375 11.40625q-4.09375 7.390625 -10.09375 17.296875q-6.0 9.890625 -11.59375 21.09375q1.59375 0 3.1875 0q1.609375 0 3.015625 0q8.796875 0 15.890625 -0.296875q7.109375 -0.3125 14.5 -1.109375l0 6.609375q-11.0 1.0 -20.203125 1.59375q-9.1875 0.59375 -17.59375 0.796875q-0.59375 0 -1.203125 0q-0.59375 0 -1.1875 0q-4.203125 9.796875 -7.3125 20.109375q-3.09375 10.296875 -3.09375 20.09375q0 8.203125 2.59375 11.609375q2.609375 3.390625 8.203125 3.390625q10.0 0 20.5 -9.09375q10.5 -9.109375 18.296875 -24.703125l2.8125 2.0q-5.203125 11.796875 -12.90625 21.40625q-7.703125 9.59375 -16.703125 15.09375q-9.0 5.5 -18.59375 5.5zm62.600098 -0.40625q-12.796875 0 -19.703125 -6.90625q-6.90625 -6.890625 -6.90625 -17.296875q0 -8.796875 4.5 -18.6875q4.5 -9.90625 12.09375 -18.609375q7.609375 -8.703125 16.8125 -14.09375q9.203125 -5.40625 18.40625 -5.40625q5.1875 0 9.890625 2.703125q4.703125 2.703125 4.703125 10.703125q0 7.59375 -4.40625 14.203125q-4.390625 6.59375 -11.796875 11.796875q-7.390625 5.203125 -16.296875 8.5q-8.90625 3.296875 -17.90625 4.296875q-0.1875 0.796875 -0.296875 1.703125q-0.09375 0.890625 -0.09375 2.890625q0 1.0 0.296875 3.5q0.296875 2.5 1.6875 5.3125q1.40625 2.796875 4.609375 4.796875q3.203125 2.0 8.796875 2.0q8.40625 0 16.90625 -4.703125q8.5 -4.703125 16.0 -12.5q7.5 -7.796875 12.5 -17.40625l4.0 3.203125q-5.40625 12.0 -13.90625 21.0q-8.5 9.0 -18.796875 14.0q-10.296875 5.0 -21.09375 5.0zm-8.40625 -36.203125q5.203125 -0.59375 11.59375 -3.59375q6.40625 -3.0 12.296875 -7.59375q5.90625 -4.609375 9.703125 -10.109375q3.8125 -5.5 3.8125 -11.09375q0 -2.203125 -0.8125 -3.0q-0.796875 -0.796875 -2.59375 -0.796875q-4.59375 0 -9.59375 3.296875q-5.0 3.296875 -9.8125 8.59375q-4.796875 5.296875 -8.59375 11.703125q-3.796875 6.40625 -6.0 12.59375zm67.19995 33.40625q-3.796875 0 -7.703125 -1.90625q-3.890625 -1.890625 -6.59375 -5.890625q-2.703125 -4.0 -2.703125 -10.203125q0 -6.59375 3.203125 -14.796875q3.203125 -8.203125 8.703125 -16.40625q5.5 -8.203125 12.796875 -15.0q7.296875 -6.796875 15.5 -11.0q8.203125 -4.203125 16.59375 -4.203125q4.609375 0 7.203125 1.5q2.609375 1.5 2.609375 4.90625q0 1.0 -0.40625 2.296875q-0.40625 1.296875 -2.0 2.296875q-0.796875 -1.1875 -2.796875 -1.6875q-2.0 -0.5 -4.203125 -0.5q-6.59375 0 -12.59375 3.703125q-6.0 3.6875 -11.0 9.5q-5.0 5.796875 -8.703125 12.59375q-3.703125 6.796875 -5.703125 13.09375q-2.0 6.296875 -2.0 10.90625q0 3.796875 1.59375 6.09375q1.609375 2.296875 4.8125 2.296875q5.390625 0 12.890625 -6.296875q7.5 -6.296875 15.390625 -18.1875q7.90625 -11.90625 14.3125 -28.515625q4.40625 -11.390625 9.203125 -23.28125q4.796875 -11.90625 9.59375 -22.90625q4.796875 -11.0 9.5 -19.59375q4.703125 -8.609375 9.0 -13.703125q4.296875 -5.109375 7.90625 -5.109375q2.203125 0 3.890625 1.703125q1.703125 1.703125 1.703125 4.296875q0 3.40625 -3.296875 10.90625q-3.296875 7.5 -8.40625 17.90625q-5.09375 10.390625 -11.0 22.5q-5.890625 12.09375 -11.0 24.796875q-5.09375 12.6875 -8.390625 25.0q-3.296875 12.296875 -3.296875 23.09375q0 4.796875 0.890625 6.5q0.90625 1.703125 3.109375 1.703125q4.390625 0 9.78125 -3.40625q5.40625 -3.40625 11.0 -10.09375q5.609375 -6.703125 10.21875 -16.109375l3.796875 3.203125q-4.40625 11.0 -11.203125 19.40625q-6.796875 8.390625 -14.609375 13.09375q-7.796875 4.703125 -15.390625 4.703125q-8.203125 0 -11.40625 -5.203125q-3.1875 -5.203125 -3.1875 -12.203125q0 -3.203125 0.5 -6.5q0.5 -3.296875 1.09375 -6.5q-6.203125 9.0 -13.109375 16.109375q-6.890625 7.09375 -13.5 11.09375q-6.59375 4.0 -12.59375 4.0z" fill-rule="nonzero"/></g></svg>