<?xml version="1.0" encoding="utf-8"?>
<svg fill="none" stroke="none" stroke-linecap="square" stroke-miterlimit="10" version="1.1" viewBox="0.0 0.0 3000.0 840.0" xmlns="http://www.w3.org/2000/svg" xmlns:xlink="http://www.w3.org/1999/xlink"><clipPath id="g366b7bb96f3_0_10.0"><path clip-rule="nonzero" d="m0 0l3000.0 0l0 840.0l-3000.0 0l0 -840.0z"/></clipPath><g clip-path="url(#g366b7bb96f3_0_10.0)"><path d="m0 0l3000.0 0l0 840.0l-3000.0 0z" fill="#ffffff" fill-rule="evenodd"/><path d="m-5.2493436E-7 0l3000.0 0l0 840.0l-3000.0 0z" fill="#000000" fill-opacity="0.0" fill-rule="evenodd"/><path d="m341.12622 234.40625q13.328125 0.53125 34.125 1.0625q20.796875 0.53125 41.609375 0.53125q26.125 0 49.59375 -0.53125q23.46875 -0.53125 33.0625 -0.53125q71.46875 0 106.40625 29.34375q34.9375 29.328125 34.9375 75.71875q0 19.203125 -6.9375 40.265625q-6.9375 21.0625 -24.0 38.9375q-17.0625 17.859375 -46.671875 29.0625q-29.59375 11.203125 -75.46875 11.203125l-53.328125 0l0 -10.671875l48.0 0q33.59375 0 51.453125 -14.390625q17.875 -14.40625 24.0 -37.875q6.140625 -23.46875 6.140625 -50.65625q0 -50.671875 -16.53125 -75.734375q-16.53125 -25.078125 -57.0625 -25.078125q-21.859375 0 -28.53125 9.078125q-6.671875 9.0625 -6.671875 36.796875l0 262.39062q0 20.265625 4.265625 30.40625q4.265625 10.125 16.53125 13.328125q12.265625 3.203125 35.203125 3.734375l0 11.203125q-15.46875 -1.0625 -40.0 -1.328125q-24.53125 -0.265625 -50.65625 -0.265625q-22.40625 0 -43.203125 0.265625q-20.796875 0.265625 -36.265625 1.328125l0 -10.671875q17.59375 -1.0625 26.390625 -4.265625q8.8125 -3.203125 11.734375 -12.796875q2.9375 -9.59375 2.9375 -28.796875l0 -264.53125q0 -19.734375 -2.9375 -29.0625q-2.921875 -9.34375 -11.734375 -12.796875q-8.796875 -3.46875 -26.390625 -4.015625l0 -10.65625zm454.38837 94.390625q36.796875 0 65.328125 14.671875q28.546875 14.671875 45.34375 46.671875q16.796875 32.0 16.796875 84.265625q0 52.265625 -16.796875 84.265625q-16.796875 32.0 -45.34375 46.40625q-28.53125 14.390625 -65.328125 14.390625q-36.796875 0 -65.59375 -14.390625q-28.796875 -14.40625 -45.34375 -46.40625q-16.53125 -32.0 -16.53125 -84.265625q0 -52.265625 16.53125 -84.265625q16.546875 -32.0 45.34375 -46.671875q28.796875 -14.671875 65.59375 -14.671875zm0 10.671875q-25.0625 0 -40.796875 31.734375q-15.734375 31.734375 -15.734375 103.203125q0 71.46875 15.734375 102.9375q15.734375 31.453125 40.796875 31.453125q24.53125 0 40.53125 -31.453125q16.0 -31.46875 16.0 -102.9375q0 -71.46875 -16.0 -103.203125q-16.0 -31.734375 -40.53125 -31.734375zm264.53668 -10.671875q22.390625 0 38.390625 6.40625q16.0 6.40625 23.46875 11.203125q18.140625 13.328125 21.875 -17.0625l11.734375 0q-1.078125 15.453125 -1.609375 36.53125q-0.53125 21.0625 -0.53125 56.265625l-11.734375 0q-2.65625 -19.734375 -10.125 -38.40625q-7.46875 -18.671875 -21.875 -31.203125q-14.390625 -12.53125 -37.859375 -12.53125q-16.53125 0 -27.46875 9.609375q-10.9375 9.59375 -10.9375 27.1875q0 16.0 9.59375 28.0q9.609375 12.0 24.8125 22.40625q15.203125 10.40625 31.734375 22.671875q19.1875 12.796875 34.125 25.859375q14.9375 13.0625 24.0 28.796875q9.0625 15.734375 9.0625 37.0625q0 24.546875 -13.59375 41.875q-13.59375 17.328125 -35.734375 26.671875q-22.125 9.328125 -48.796875 9.328125q-14.40625 0 -26.140625 -2.671875q-11.71875 -2.65625 -20.796936 -6.9375q-6.921875 -3.71875 -12.53125 -6.921875q-5.59375 -3.203125 -11.46875 -5.34375q-5.328125 -2.65625 -9.328125 2.140625q-4.0 4.796875 -6.140625 16.0l-11.71875 0q1.0625 -17.0625 1.59375 -41.59375q0.53125 -24.546875 0.53125 -65.078125l11.734375 0q3.734375 29.34375 11.46875 51.484375q7.734375 22.125 22.65625 34.65625q14.937561 12.53125 38.40631 12.53125q10.140625 0 19.46875 -4.265625q9.328125 -4.265625 15.453125 -13.328125q6.140625 -9.078125 6.140625 -24.546875q0 -23.453125 -16.0 -38.921875q-16.0 -15.46875 -40.0 -33.078125q-18.125061 -13.328125 -33.859436 -26.125q-15.734375 -12.796875 -25.609375 -28.796875q-9.859375 -16.0 -9.859375 -37.875q0 -24.0 12.265625 -39.71875q12.265625 -15.734375 32.265625 -24.0q20.000061 -8.28125 42.93756 -8.28125zm242.66833 -80.0l0 88.0l68.265625 0l0 10.671875l-68.265625 0l0 212.26562q0 19.203125 6.921875 27.203125q6.9375 8.0 19.734375 8.0q12.265625 0 22.390625 -9.328125q10.140625 -9.34375 18.140625 -31.203125l9.609375 4.265625q-8.0 26.125 -24.8125 43.46875q-16.796875 17.328125 -47.1875 17.328125q-18.140625 0 -30.671875 -4.53125q-12.53125 -4.53125 -21.59375 -13.078125q-11.734375 -12.265625 -15.734375 -29.328125q-4.0 -17.0625 -4.0 -45.328125l0 -179.73438l-46.9375 0l0 -10.671875l46.9375 0l0 -74.125q19.203125 -0.53125 35.734375 -3.734375q16.53125 -3.203125 31.46875 -10.140625zm220.25854 80.0q46.9375 0 73.59375 28.265625q26.671875 28.265625 26.671875 90.140625l-179.73438 0l-0.53125 -10.140625l118.40625 0q1.0625 -26.125 -3.203125 -48.25q-4.265625 -22.140625 -13.609375 -35.46875q-9.328125 -13.34375 -24.265625 -13.34375q-20.265625 0 -35.203125 23.734375q-14.921875 23.734375 -18.65625 77.59375l2.125 3.203125q-1.0625 6.9375 -1.328125 14.9375q-0.265625 8.0 -0.265625 16.0q0 36.796875 10.65625 60.796875q10.671875 24.0 27.734375 35.203125q17.078125 11.203125 35.203125 11.203125q12.265625 0 25.0625 -3.734375q12.8125 -3.734375 25.078125 -13.859375q12.265625 -10.140625 22.390625 -28.8125l10.140625 4.265625q-5.859375 18.671875 -19.46875 37.078125q-13.59375 18.390625 -34.9375 30.125q-21.328125 11.734375 -50.125 11.734375q-36.265625 0 -64.0 -16.0q-27.734375 -16.0 -43.203125 -47.734375q-15.46875 -31.734375 -15.46875 -77.59375q0 -48.53125 16.265625 -81.59375q16.265625 -33.078125 45.0625 -50.40625q28.8125 -17.34375 65.609375 -17.34375zm390.3932 -134.39062l0 359.46875q0 23.984375 8.0 35.453125q8.0 11.46875 28.265625 11.46875l0 11.203125q-16.53125 -1.59375 -33.0625 -1.59375q-19.734375 0 -37.34375 1.59375q-17.59375 1.59375 -33.0625 5.859375l0 -359.45312q0 -24.0 -7.734375 -35.46875q-7.71875 -11.46875 -28.53125 -11.46875l0 -11.203125q17.078125 1.609375 33.078125 1.609375q20.265625 0 37.859375 -1.859375q17.59375 -1.875 32.53125 -5.609375zm-127.46875 134.39062q23.46875 0 42.140625 9.078125q18.671875 9.0625 27.734375 30.390625l-6.40625 5.34375q-7.46875 -15.46875 -20.265625 -22.9375q-12.796875 -7.46875 -28.796875 -7.46875q-28.796875 0 -46.140625 32.265625q-17.328125 32.265625 -17.328125 98.9375q0 44.796875 6.9375 72.265625q6.9375 27.46875 20.0 39.734375q13.0625 12.265625 31.203125 12.265625q19.1875 0 34.65625 -15.734375q15.46875 -15.734375 18.140625 -45.0625l3.734375 14.921875q-6.9375 32.53125 -26.140625 49.609375q-19.203125 17.0625 -50.65625 17.0625q-32.0 0 -56.8125 -15.734375q-24.796875 -15.734375 -38.40625 -48.0q-13.59375 -32.265625 -13.59375 -81.859375q0 -48.546875 16.0 -80.8125q16.0 -32.265625 43.203125 -48.265625q27.203125 -16.0 60.796875 -16.0z" fill="#000000" fill-rule="nonzero"/><path d="m2008.2109 612.0l0 -53.390625l53.390625 0l0 53.390625l-53.390625 0z" fill="#000000" fill-rule="nonzero"/><path d="m2133.543 637.0625q-16.53125 0 -27.984375 -10.9375q-11.46875 -10.921875 -11.46875 -33.328125q0 -19.203125 8.53125 -41.328125q8.53125 -22.140625 23.453125 -43.734375q14.9375 -21.59375 33.875 -39.453125q18.9375 -17.875 40.0 -28.546875q21.0625 -10.671875 41.859375 -10.671875q20.8125 0 34.671875 10.9375q13.859375 10.9375 13.859375 29.0625q0 13.34375 -7.203125 18.140625q-7.1875 4.796875 -18.921875 4.796875q1.0625 -4.265625 1.859375 -9.328125q0.8125 -5.078125 0.8125 -9.34375q0 -12.265625 -5.875 -21.0625q-5.859375 -8.796875 -20.265625 -8.796875q-14.9375 0 -30.40625 10.40625q-15.453125 10.390625 -29.859375 27.734375q-14.40625 17.328125 -25.609375 37.59375q-11.1875 20.265625 -17.59375 40.0q-6.390625 19.734375 -6.390625 35.203125q0 20.796875 14.390625 20.796875q12.265625 0 26.671875 -11.46875q14.40625 -11.46875 29.59375 -29.328125q15.203125 -17.875 29.0625 -37.0625q13.875 -19.203125 24.546875 -35.203125q2.125 -3.203125 2.65625 -3.203125q3.203125 0.53125 8.265625 2.140625q5.078125 1.59375 8.8125 4.265625q3.734375 2.65625 3.734375 6.921875q0 4.796875 -4.8125 13.0625q-4.796875 8.265625 -10.671875 18.9375q-5.859375 10.671875 -10.65625 21.609375q-4.796875 10.921875 -4.796875 20.53125q0 8.0 4.265625 15.734375q4.265625 7.71875 13.859375 7.71875q14.40625 0 37.875 -21.0625q23.46875 -21.0625 47.46875 -63.203125l5.328125 5.34375q-11.203125 28.796875 -28.8125 50.671875q-17.59375 21.859375 -37.59375 34.125q-20.0 12.265625 -39.1875 12.265625q-19.734375 0 -29.078125 -11.734375q-9.328125 -11.734375 -9.328125 -25.59375q0 -3.203125 0.53125 -7.203125q0.53125 -4.0 1.0625 -8.265625q-22.921875 30.9375 -41.859375 46.390625q-18.9375 15.46875 -38.671875 15.46875zm299.20288 -11.203125q-18.140625 0 -28.546875 -9.59375q-10.390625 -9.59375 -10.390625 -25.0625q0 -16.0 7.46875 -33.59375q7.46875 -17.609375 14.671875 -34.9375q7.203125 -17.34375 7.203125 -31.203125q0 -17.0625 -9.875 -25.328125q-9.859375 -8.265625 -20.0 -15.203125q-12.265625 31.46875 -25.609375 59.734375q-13.328125 28.265625 -21.859375 42.65625l-4.796875 -9.0625q7.46875 -13.859375 19.46875 -40.53125q12.0 -26.671875 23.734375 -60.796875q-5.328125 -5.328125 -5.328125 -12.796875q0 -16.0 9.0625 -26.125q9.0625 -10.140625 13.328125 -10.140625q5.875 0 6.671875 5.0625q0.796875 5.0625 0.796875 7.734375q0 2.65625 -2.9375 10.390625q-2.921875 7.734375 -2.921875 9.34375q0 7.46875 8.265625 13.609375q8.265625 6.125 18.921875 13.859375q10.671875 7.71875 18.9375 18.65625q8.265625 10.9375 8.265625 28.0q0 16.0 -6.671875 32.53125q-6.65625 16.53125 -13.328125 31.46875q-6.671875 14.9375 -6.671875 26.140625q0 9.59375 4.796875 12.796875q4.8125 3.203125 11.203125 3.203125q12.8125 0 26.40625 -8.0q13.59375 -8.0 26.390625 -20.265625q12.8125 -12.265625 22.9375 -25.859375q10.140625 -13.609375 14.9375 -25.34375l6.9375 5.328125q-10.140625 22.40625 -27.75 44.015625q-17.59375 21.59375 -39.1875 35.453125q-21.59375 13.859375 -44.53125 13.859375zm138.66064 10.671875q-22.921875 0 -35.203125 -13.34375q-12.265625 -13.328125 -12.265625 -39.453125q0 -23.46875 8.796875 -57.859375q8.8125 -34.40625 22.140625 -70.671875q-5.328125 -1.0625 -10.140625 -1.859375q-4.796875 -0.8125 -9.0625 -2.40625l0 -9.609375q4.265625 0.546875 10.125 1.078125q5.875 0.53125 13.34375 1.0625q11.203125 -28.796875 24.0 -55.734375q12.796875 -26.9375 25.328125 -48.0q12.546875 -21.0625 24.0 -33.59375q11.46875 -12.53125 19.46875 -12.53125q4.265625 0 7.734375 2.9375q3.46875 2.921875 3.46875 8.796875q0 9.0625 -11.203125 29.59375q-11.1875 20.53125 -27.734375 48.796875q-16.53125 28.265625 -32.0 61.328125q4.8125 0 9.875 0q5.0625 0 9.859375 0q17.609375 0 37.078125 -0.53125q19.46875 -0.53125 39.1875 -2.65625l0 9.59375q-29.328125 3.203125 -52.53125 4.8125q-23.1875 1.59375 -41.328125 1.59375q-2.140625 0 -4.0 0q-1.859375 0 -4.0 0q-12.265625 28.265625 -20.796875 58.140625q-8.53125 29.859375 -8.53125 58.125q0 22.921875 6.921875 32.796875q6.9375 9.859375 22.9375 9.859375q27.734375 0 54.390625 -24.53125q26.671875 -24.53125 46.9375 -66.671875l6.9375 5.34375q-12.796875 29.859375 -32.265625 53.859375q-19.46875 24.0 -42.9375 37.859375q-23.453125 13.875 -48.53125 13.875z" fill="#000000" fill-rule="nonzero"/></g></svg>